<svg width="1435" height="2537" viewBox="0 0 1435 2537" fill="none" xmlns="http://www.w3.org/2000/svg">
<path d="M98.7727 1C131.364 65.0151 115.068 154.636 1 193.045" stroke="#F1DED0" stroke-opacity="0.29" stroke-width="0.5" stroke-linecap="round"/>
<path d="M229.136 1C288.886 97.0226 326.909 312.113 1 404.295" stroke="#F1DED0" stroke-opacity="0.29" stroke-width="0.5" stroke-linecap="round"/>
<path d="M555.045 1C527.886 167.439 382.313 504.159 17.2954 519.522" stroke="#F1DED0" stroke-opacity="0.29" stroke-width="0.5" stroke-linecap="round"/>
<path d="M799.477 1C756.022 180.242 538.75 565.613 17.2954 673.158" stroke="#F1DED0" stroke-opacity="0.29" stroke-width="0.5" stroke-linecap="round"/>
<path d="M1092.79 1C929.84 218.651 581.118 653.954 489.863 653.954C398.609 653.954 125.932 1025.24 1 1210.89" stroke="#F1DED0" stroke-opacity="0.29" stroke-width="0.5" stroke-linecap="round"/>
<path d="M1418.7 1C603.932 583.537 -693.185 1906.09 636.523 2536" stroke="#F1DED0" stroke-opacity="0.29" stroke-width="0.5" stroke-linecap="round"/>
<path d="M1 2267.13C28.1591 2350.35 111.809 2520.63 229.136 2536" stroke="#F1DED0" stroke-opacity="0.29" stroke-width="0.5" stroke-linecap="round"/>
<path d="M1435 231.456C750.591 762.781 -210.84 1687.16 1418.7 1134.07" stroke="#F1DED0" stroke-opacity="0.29" stroke-width="0.5" stroke-linecap="round"/>
<path d="M1418.71 423.502C1033.05 724.373 343.204 1422.14 1418.71 980.433" stroke="#F1DED0" stroke-opacity="0.29" stroke-width="0.5" stroke-linecap="round"/>
<path d="M1418.7 1268.5C761.454 1358.12 -15.2949 1767.82 848.363 2536" stroke="#F1DED0" stroke-opacity="0.29" stroke-width="0.5" stroke-linecap="round"/>
<path d="M1435 1498.95C1011.32 1556.57 212.841 1614.18 946.137 2516.79" stroke="#F1DED0" stroke-opacity="0.29" stroke-width="0.5" stroke-linecap="round"/>
<path d="M1418.7 1729.41C1103.66 1748.61 489.863 1633.39 1043.91 2536" stroke="#F1DED0" stroke-opacity="0.29" stroke-width="0.5" stroke-linecap="round"/>
<path d="M1418.7 1902.25C1212.3 1947.06 783.181 1748.61 1157.98 2536" stroke="#F1DED0" stroke-opacity="0.29" stroke-width="0.5" stroke-linecap="round"/>
<path d="M1435 2098.31C1296.89 2133.04 1037.94 1869.04 1262.36 2535.99" stroke="#F1DED0" stroke-opacity="0.29" stroke-width="0.5" stroke-linecap="round"/>
<path d="M1386.11 2536H1418.7" stroke="#F1DED0" stroke-opacity="0.29" stroke-width="0.5" stroke-linecap="round"/>
</svg>
